# xmcd
#
# Track frame offsets:
#	150
#	39115
#	82268
#	119421
#	148613
#	177965
#	218159
#	250515
#
# Disc length: 4225 seconds
#
# Revision: 1
# Processed by: cddbd v1.5.2PL0 Copyright (c) Steve Scherf et al.
# Submitted via: audiograbber 1.83.01
#
DISCID=69107f08
DTITLE=Grateful Dead - 92-05-31 Sam Boyd Silver Bowl, Las Vegas NV
DYEAR=1900
DGENRE=
TTITLE0=Scarlet Begonias
TTITLE1=Fire On The Mountain
TTITLE2=Men Smart Women Smarter
TTITLE3=So Many Roads
TTITLE4=Saint Of Circumstance
TTITLE5=He's Gone
TTITLE6=Drums
TTITLE7=Space
EXTD=
EXTT0=
EXTT1=
EXTT2=
EXTT3=
EXTT4=
EXTT5=
EXTT6=
EXTT7=
PLAYORDER=
